<svg xmlns="http://www.w3.org/2000/svg" width="65.205" height="78.889" viewBox="0 0 65.205 78.889"><g transform="translate(-72.004 -62.035)"><path d="M84.891,264.029h-.653a.569.569,0,0,1-.625-.584l-.391-5.22c-.044-.687-.015-1.609-.015-1.609h-.029s-.32,1.009-.551,1.609l-1.494,3.538a.662.662,0,0,1-.684.482h-.608a.667.667,0,0,1-.7-.482l-1.48-3.538c-.232-.6-.566-1.622-.566-1.622H77.07s.028.936-.015,1.622l-.392,5.22a.562.562,0,0,1-.625.584h-.652a.526.526,0,0,1-.581-.628l.74-9.167a.577.577,0,0,1,.625-.585h.914a.658.658,0,0,1,.681.5l1.843,4.634c.233.616.522,1.522.522,1.522h.029s.276-.906.507-1.522l1.843-4.634a.664.664,0,0,1,.7-.5h.9a.57.57,0,0,1,.624.585l.74,9.167a.525.525,0,0,1-.58.628m10.14.175a3.815,3.815,0,0,1-4.15-3.9v-6.038a.544.544,0,0,1,.6-.616h.653a.548.548,0,0,1,.609.616v6.023a2.287,2.287,0,0,0,4.57,0v-6.023a.543.543,0,0,1,.594-.616h.668a.544.544,0,0,1,.6.616V260.3a3.811,3.811,0,0,1-4.135,3.9m11.142-.175h-.668a.536.536,0,0,1-.6-.613v-9.152a.544.544,0,0,1,.6-.616h.668a.544.544,0,0,1,.594.616v9.152a.536.536,0,0,1-.594.613m12.042-8.45c-.218.424-.522.365-.828.2a3.346,3.346,0,0,0-1.783-.57c-.959,0-1.568.469-1.568,1.169,0,1.945,4.8,1.449,4.8,4.752a3.1,3.1,0,0,1-3.41,3.07,5.44,5.44,0,0,1-3.163-1.052.546.546,0,0,1-.087-.848l.319-.467c.232-.323.478-.338.842-.132a3.607,3.607,0,0,0,2.089.76c.958,0,1.539-.482,1.539-1.184,0-1.974-4.8-1.565-4.8-4.8,0-1.828,1.508-3.012,3.467-3.012a4.749,4.749,0,0,1,2.655.791.579.579,0,0,1,.189.833Zm12.767-.307h-2.771v8.144a.54.54,0,0,1-.609.613h-.653a.536.536,0,0,1-.6-.613v-8.144h-2.772a.535.535,0,0,1-.608-.6v-.409a.547.547,0,0,1,.608-.616h7.4a.544.544,0,0,1,.6.616v.409a.532.532,0,0,1-.6.6m6.615,8.757h-.668a.536.536,0,0,1-.594-.613v-9.152a.544.544,0,0,1,.594-.616h.668a.544.544,0,0,1,.6.616v9.152a.536.536,0,0,1-.6.613" transform="translate(-1.892 -129.385)" fill="#f5efea"/><rect width="65.205" height="2.913" transform="translate(72.004 138.011)" fill="#f5efea"/><path d="M72.006,120.837h65.2v-58.8h-65.2Zm62.344-2.956H120.022V80.164l-8,21.662-1.763-.891-2.033,3.61a3.309,3.309,0,0,1-3.409,2.461h-.1a3.34,3.34,0,0,1-3.482-2.461l-1.848-3.61-1.763.891L89.53,80.018h-.145l-.063,37.863H75V64.959H92.483l9.6,26.165c1.16,3.131,2.611,6.354,2.611,6.354h.146s1.377-3.223,2.539-6.354l9.75-26.165H134.35Z" transform="translate(-0.001 0)" fill="#f5efea"/></g></svg>